<svg id="Layer_1" xmlns="http://www.w3.org/2000/svg" viewBox="0 0 128 128"><style>.st0{fill:#fff}</style><path class="st0" d="M117.3 81.2c0-.1 0-.2-.1-.3 0-.1-.1-.2-.1-.3 0-.1-.1-.2-.1-.3 0 0 0-.1-.1-.1l-16.4-29.1c-.5-.9-1.5-1.5-2.6-1.5h-2.3V17.9c0-1.7-1.3-3-3-3H36c-1.7 0-3 1.3-3 3v31.7h-2.2c-1.1 0-2 .6-2.6 1.5l-17.1 29c0 .1 0 .1-.1.2s-.1.2-.1.3c0 .1-.1.2-.1.3s0 .2-.1.3v29c0 1.7 1.3 3 3 3h100.6c1.7 0 3-1.3 3-3V81.7v-.2-.3zm-32-2.5c-1.7 0-3 1.3-3 3V88c0 .1-.1.2-.2.2H45.8c-.1 0-.2-.1-.2-.2v-6.3c0-1.7-1.3-3-3-3H18.9l13.6-23.1h.5v13.8c0 1.7 1.3 3 3 3s3-1.3 3-3V20.9h50.7v48.6c0 1.7 1.3 3 3 3s3-1.3 3-3V55.6h.5l13 23.1H85.3z"/><path class="st0" d="M43.8 30.3h8.7c.8 0 1.5-.7 1.5-1.5s-.7-1.5-1.5-1.5h-8.7c-.8 0-1.5.7-1.5 1.5s.7 1.5 1.5 1.5zM84.2 32H54.6c-.8 0-1.5.7-1.5 1.5s.7 1.5 1.5 1.5h29.5c.8 0 1.5-.7 1.5-1.5S85 32 84.2 32zM84.2 41.6H43.8c-.8 0-1.5.7-1.5 1.5s.7 1.5 1.5 1.5h40.3c.8 0 1.5-.7 1.5-1.5s-.6-1.5-1.4-1.5zM84.2 51.7H43.8c-.8 0-1.5.7-1.5 1.5s.7 1.5 1.5 1.5h40.3c.8 0 1.5-.7 1.5-1.5s-.6-1.5-1.4-1.5zM84.2 60.9H43.8c-.8 0-1.5.7-1.5 1.5s.7 1.5 1.5 1.5h40.3c.8 0 1.5-.7 1.5-1.5s-.6-1.5-1.4-1.5z"/></svg>