<svg id="Layer_1" xmlns="http://www.w3.org/2000/svg" viewBox="0 0 44.3 44.3"><style>.st0{fill:#fff}</style><path class="st0" d="M28.5.9C28 4 25.4 6.3 22.2 6.3 19 6.3 16.3 4 15.8.9"/><path class="st0" d="M22.2 6.3c3.2 0 5.9-2.3 6.4-5.4-2-.6-4.2-.9-6.4-.9s-4.4.3-6.4.9c.5 3.1 3.2 5.4 6.4 5.4zM22.2 38c-3.2 0-5.9 2.3-6.4 5.4 2 .6 4.2.9 6.4.9s4.4-.3 6.4-.9c-.6-3.1-3.2-5.4-6.4-5.4zM11 11c2.3-2.3 2.5-5.8.7-8.3-3.8 2.1-6.9 5.2-9 9 2.5 1.8 6 1.6 8.3-.7zM33.4 33.4c-2.3 2.3-2.5 5.8-.7 8.3 3.8-2.1 6.9-5.2 9-9-2.5-1.8-6.1-1.6-8.3.7zM6.3 22.2C6.3 19 4 16.3.9 15.8c-.6 2-.9 4.2-.9 6.4s.3 4.3.9 6.4c3.1-.6 5.4-3.2 5.4-6.4zM43.4 15.8c-3.1.5-5.4 3.2-5.4 6.4s2.3 5.9 5.4 6.4c.6-2 .9-4.2.9-6.4s-.3-4.4-.9-6.4zM11 33.4c-2.3-2.3-5.8-2.5-8.3-.7 2.1 3.8 5.2 6.9 9 9 1.8-2.5 1.6-6.1-.7-8.3zM33.4 11c2.3 2.3 5.8 2.5 8.3.7-2.1-3.8-5.2-7-9-9-1.8 2.5-1.6 6 .7 8.3z"/><circle class="st0" cx="22.2" cy="10.3" r="2"/><circle class="st0" cx="22.2" cy="34.2" r="2"/><ellipse transform="rotate(-45.009 13.722 13.772)" class="st0" cx="13.7" cy="13.8" rx="2" ry="2"/><ellipse transform="rotate(-45.001 30.622 30.671)" class="st0" cx="30.6" cy="30.7" rx="2" ry="2"/><circle class="st0" cx="10.2" cy="22.2" r="2"/><circle class="st0" cx="34.1" cy="22.2" r="2"/><ellipse transform="rotate(-45.001 13.721 30.671)" class="st0" cx="13.7" cy="30.7" rx="2" ry="2"/><ellipse transform="rotate(-44.992 30.62 13.772)" class="st0" cx="30.6" cy="13.8" rx="2" ry="2"/></svg>