<svg id="Layer_1" xmlns="http://www.w3.org/2000/svg" viewBox="0 0 200 200"><style>.st0{fill:#fff}</style><path class="st0" d="M123.2 126.5l71.3 58.5c1-1.4 1.5-3.2 1.5-5V81.1c0-1.3-.3-2.5-.8-3.7l-91.6 56.2c-1.1.7-2.4 1-3.7 1-1.4 0-2.7-.3-3.8-1L4.9 76.9c-.7 1.2-1 2.7-1 4.2V180c0 1.8.6 3.6 1.5 5l71.4-58.6 4.9 3-71.9 59c1 .3 2 .5 3.1.5h174.2c1.1 0 2.1-.2 3.1-.5l-71.9-58.9 4.9-3zM55 101.6h90.5L100.9 129c-.4.2-1.4.2-1.8 0L55 101.6zm-30.5-19h151.9l-13.9 8.5H38.2l-13.7-8.5zm15.2 9.5h121.2l-13.9 8.5H53.5l-13.8-8.5zm150.1-69.8c0-2.7-2.2-4.8-4.8-4.8H16.4c-2.7 0-4.8 2.2-4.8 4.8v52.3L23 81.7h155l11.9-7.3V22.3zm-8.9 50.8H18.7c-.3 0-.5-.2-.5-.5s.2-.5.5-.5h162.2c.3 0 .5.2.5.5s-.2.5-.5.5zm0-9.5H18.7c-.3 0-.5-.2-.5-.5s.2-.5.5-.5h162.2c.3 0 .5.2.5.5s-.2.5-.5.5zm0-9.4H18.7c-.3 0-.5-.2-.5-.5s.2-.5.5-.5h162.2c.3 0 .5.2.5.5 0 .2-.2.5-.5.5zm0-9.5H18.7c-.3 0-.5-.2-.5-.5s.2-.5.5-.5h162.2c.3 0 .5.2.5.5 0 .2-.2.5-.5.5zm0-9.5H18.7c-.3 0-.5-.2-.5-.5s.2-.5.5-.5h162.2c.3 0 .5.2.5.5s-.2.5-.5.5zm0-9.5H18.7c-.3 0-.5-.2-.5-.5s.2-.5.5-.5h162.2c.3 0 .5.2.5.5s-.2.5-.5.5z"/></svg>