<svg id="Layer_1" xmlns="http://www.w3.org/2000/svg" viewBox="0 0 200 200"><style>.st0{fill:#fff}</style><path class="st0" d="M78.7 86.1l.1-3.2c-2.8.1-2.7.1-5.4.3l.6 3.2c2.3-.1 2.3-.2 4.7-.3zM114.5 87.1l2.3-3.3c-2.7-.3-10.4-.8-13.3-.9l.2 3.2c2.4.1 8.5.7 10.8 1zM165.1 17.3c-5.3-2.8-11.8-.7-14.6 4.5l-4.3 8.2c-.3.3-1.1.8-1.9.4-.9-.5-1.7-1.2-1.6-1.7l2.8-4.8c.7-1.3.3-2.9-.9-3.6-1.3-.7-2.9-.3-3.6.9 0 .1-.1.1-.1.2l-16.1 34.1v.1c-1.1 3.5-2.1 7-3.1 10.5l-3 10.5 3.9-10.2c1.3-3.3 2.6-6.7 4-10L141 31.8c.2-.5 1.4.1 2.4.6.8.4.8 1.3.8 1.8l-11.6 22.1 19.1 10.1 18.2-34.5c2.5-5.3.5-11.9-4.8-14.6z"/><path class="st0" d="M103.7 110.9c13-.9 23.5-3.7 28.2-7.3l16.4-31.3-19.1-10.1-25.5 48.7z"/><path transform="rotate(-62.212 140.37 64.23)" class="st0" d="M139 53.4h2.8V75H139z"/><path class="st0" d="M58.5 51.3l11.8 59.5c1 .2 2.1.3 3.1.4l-12-60.5-2.9.6zM74.4 111.3c1.2.1 2.4.3 3.6.4l-11.9-60-3.7-1 12 60.6zM57.2 36.9l-.7 4.1 2.9-.5z"/><path class="st0" d="M61.7 49.6l4 1.1-5.8-9.3-3.5.7-1.8 10.8 3.3-2.5zM81.3 110.7h3.6v-.7h-3.6v-.7h3.6v-.7h-3.6v-.9h6.2v-.6h-6.2v-.8h3.6v-.6h-3.6v-.8h3.6v-.7h-3.6v-.7h3.6v-.7h-3.6v-.7h3.6v-.7h-3.6v-.7h3.6v-.7h-3.6v-.8h6.2v-.7h-6.2v-.7h3.6v-.7h-3.6v-.7h3.6v-.7h-3.6v-.8h3.6v-.6h-3.6v-.8h3.6v-.6h-3.6v-.8h3.6v-.7h-3.6v-.8h6.2v-.7h-6.2v-.7h3.6v-.7h-3.6v-.7h3.6v-.7h-3.6v-.7h3.6v-.7h-3.6V85h3.6v-.7h-3.6v-.7h3.6v-.7h-3.6V82h6.2v-.6h-6.2v-.8h3.6v-.7h-3.6v-.7h3.6v-.7h-3.6v-.7h3.6v-.7h-3.6v-.7h3.6v-.7h-3.6V75h3.6v-.7h-3.6v-.8h6.2v-.7h-6.2v-.7h3.6v-.7h-3.6v-.8h3.6V70h-3.6v-.8h3.6v-.6h-3.6v-.8h3.6v-.7h-3.6v-.7h3.6v-.7h-3.6v-.8h6.2v-.7h-6.2v-.7h3.6v-.7h-3.6v-.7h3.6v-.7h-3.6v-.7h3.6V60h-3.6v-.7h3.6v-.7h-3.6v-.8h3.6v-.6h-3.6v-.9h6.2v-.7h-6.2v-.7h3.6v-.7h-3.6v-.7h3.6v-.7h-3.6v-.7h3.6v-.7h-3.6v-.7h3.6V50h-3.6v-.7h3.6v-.7h-3.6v-.9h6.2v-.6h-6.2v-.8h3.6v-.6h-3.6v-.8h3.6v-.6h-3.6v-.8h3.6v-.7h-3.6v-.7h3.6v-.7h-3.6v-.7h3.6V40h-3.6v-.8h6.2v-.7h-6.2v-.7h3.6v-.7h-3.6v-.7h3.6v-.7h-3.6v-.8h3.6v-.6h-3.6v-.8h3.6v-.6h-3.6v-.8h3.6v-.6h-3.6v-.9h6.2v-.7h-6.2v-.7h3.6v-.7h-3.6v-.7h3.6v-.7h-3.6v-.7h3.6v-.7h-3.6V25h3.6v-.7h-3.6v-.7h3.6v-.7h-3.6V22h6.2v-.6h-6.2v-.8h3.6V20h-3.6v-.8h3.6v-.7h-3.6v-.7h3.6v-.7h-3.6v-.7h3.6v-.7h-3.6V15h3.6v-.7h-3.6v-.8h6.2v-.7h-6.2v-.7h3.6v-.7h-3.6v-.8h3.6V10h-3.6v-.8h3.6v-.6h-3.6v-.8h3.6v-.6h-3.6v-.8h3.6v-.7h-3.6V5h6.2v-.7h-6.2V2.7h20.2v109.4h1.1V1.4H79.9v110.7h1.4z"/><path class="st0" d="M140.4 90.5l-2.6 5c1.3 1.3 2 2.7 2 4.1 0 7.8-21.3 14.1-47.5 14.1-26.3 0-47.5-6.3-47.5-14.1 0-4.3 6.5-8.2 16.8-10.7l4.2 21.1c1.2.2 2.4.5 3.6.7l-11.7-59-3 2.3 6.2 31.2c-14.8 3-24.4 8-24.4 13.7 0 .3 0 .6.1.9 0 .2.1.4.2.7l22.7 88.2c1.4 5.5 15.7 9.9 33.1 9.9 17.4 0 31.7-4.4 33.1-9.9l22.4-88.3c.1-.2.1-.4.2-.6.1-.3.1-.6.1-.9-.3-3.1-3.1-6-8-8.4zM48.2 125c13.1 55.9 36.6 70.4 36.6 70.4C56 194.6 48.2 125 48.2 125z"/></svg>