<?xml version="1.0" encoding="utf-8"?>
<!-- Generator: Adobe Illustrator 22.0.1, SVG Export Plug-In . SVG Version: 6.00 Build 0)  -->
<svg version="1.1" id="Layer_1" xmlns="http://www.w3.org/2000/svg" xmlns:xlink="http://www.w3.org/1999/xlink" x="0px" y="0px"
	 viewBox="0 0 128 128" style="enable-background:new 0 0 128 128;" xml:space="preserve">
<style type="text/css">
	.st0{fill:#FFFFFF;}
</style>
<path class="st0" d="M117.3,81.2c0-0.1,0-0.2-0.1-0.3c0-0.1-0.1-0.2-0.1-0.3c0-0.1-0.1-0.2-0.1-0.3c0,0,0-0.1-0.1-0.1l-16.4-29.1
	c-0.5-0.9-1.5-1.5-2.6-1.5h-2.3V17.9c0-1.7-1.3-3-3-3H36c-1.7,0-3,1.3-3,3v31.7h-2.2c-1.1,0-2,0.6-2.6,1.5l-17.1,29
	c0,0.1,0,0.1-0.1,0.2s-0.1,0.2-0.1,0.3c0,0.1-0.1,0.2-0.1,0.3s0,0.2-0.1,0.3c0,0.1,0,0.2,0,0.3c0,0.1,0,0.1,0,0.2v28.5
	c0,1.7,1.3,3,3,3h100.6c1.7,0,3-1.3,3-3V81.7c0-0.1,0-0.1,0-0.2C117.3,81.4,117.3,81.3,117.3,81.2z M85.3,78.7c-1.7,0-3,1.3-3,3V88
	c0,0.1-0.1,0.2-0.2,0.2H45.8c-0.1,0-0.2-0.1-0.2-0.2v-6.3c0-1.7-1.3-3-3-3H18.9l13.6-23.1H33v13.8c0,1.7,1.3,3,3,3s3-1.3,3-3V20.9
	h50.7v48.6c0,1.7,1.3,3,3,3s3-1.3,3-3V55.6h0.5l13,23.1H85.3z"/>
<path class="st0" d="M43.8,30.3h8.7c0.8,0,1.5-0.7,1.5-1.5s-0.7-1.5-1.5-1.5h-8.7c-0.8,0-1.5,0.7-1.5,1.5S43,30.3,43.8,30.3z"/>
<path class="st0" d="M84.2,32H54.6c-0.8,0-1.5,0.7-1.5,1.5s0.7,1.5,1.5,1.5h29.5c0.8,0,1.5-0.7,1.5-1.5S85,32,84.2,32z"/>
<path class="st0" d="M84.2,41.6H43.8c-0.8,0-1.5,0.7-1.5,1.5s0.7,1.5,1.5,1.5h40.3c0.8,0,1.5-0.7,1.5-1.5S85,41.6,84.2,41.6z"/>
<path class="st0" d="M84.2,51.7H43.8c-0.8,0-1.5,0.7-1.5,1.5s0.7,1.5,1.5,1.5h40.3c0.8,0,1.5-0.7,1.5-1.5S85,51.7,84.2,51.7z"/>
<path class="st0" d="M84.2,60.9H43.8c-0.8,0-1.5,0.7-1.5,1.5s0.7,1.5,1.5,1.5h40.3c0.8,0,1.5-0.7,1.5-1.5S85,60.9,84.2,60.9z"/>
</svg>
