<?xml version="1.0" encoding="utf-8"?>
<!-- Generator: Adobe Illustrator 21.1.0, SVG Export Plug-In . SVG Version: 6.00 Build 0)  -->
<svg version="1.1" id="Layer_1" xmlns="http://www.w3.org/2000/svg" xmlns:xlink="http://www.w3.org/1999/xlink" x="0px" y="0px"
	 viewBox="0 0 44.3 44.3" style="enable-background:new 0 0 44.3 44.3;" xml:space="preserve">
<style type="text/css">
	.st0{fill:#FFFFFF;}
</style>
<g>
	<path class="st0" d="M28.5,0.9C28,4,25.4,6.3,22.2,6.3c-3.2,0-5.9-2.3-6.4-5.4"/>
	<path class="st0" d="M22.2,6.3c3.2,0,5.9-2.3,6.4-5.4c-2-0.6-4.2-0.9-6.4-0.9c-2.2,0-4.4,0.3-6.4,0.9C16.3,4,19,6.3,22.2,6.3z"/>
	<path class="st0" d="M22.2,38c-3.2,0-5.9,2.3-6.4,5.4c2,0.6,4.2,0.9,6.4,0.9c2.2,0,4.4-0.3,6.4-0.9C28,40.3,25.4,38,22.2,38z"/>
	<path class="st0" d="M11,11c2.3-2.3,2.5-5.8,0.7-8.3c-3.8,2.1-6.9,5.2-9,9C5.2,13.5,8.7,13.3,11,11z"/>
	<path class="st0" d="M33.4,33.4c-2.3,2.3-2.5,5.8-0.7,8.3c3.8-2.1,6.9-5.2,9-9C39.2,30.9,35.6,31.1,33.4,33.4z"/>
	<path class="st0" d="M6.3,22.2c0-3.2-2.3-5.9-5.4-6.4C0.3,17.8,0,20,0,22.2c0,2.2,0.3,4.3,0.9,6.4C4,28,6.3,25.4,6.3,22.2z"/>
	<path class="st0" d="M43.4,15.8C40.3,16.3,38,19,38,22.2c0,3.2,2.3,5.9,5.4,6.4c0.6-2,0.9-4.2,0.9-6.4C44.3,20,44,17.8,43.4,15.8z"
		/>
	<path class="st0" d="M11,33.4c-2.3-2.3-5.8-2.5-8.3-0.7c2.1,3.8,5.2,6.9,9,9C13.5,39.2,13.3,35.6,11,33.4z"/>
	<path class="st0" d="M33.4,11c2.3,2.3,5.8,2.5,8.3,0.7c-2.1-3.8-5.2-7-9-9C30.9,5.2,31.1,8.7,33.4,11z"/>
</g>
<circle class="st0" cx="22.2" cy="10.3" r="2"/>
<circle class="st0" cx="22.2" cy="34.2" r="2"/>
<ellipse transform="matrix(0.707 -0.7072 0.7072 0.707 -5.7186 13.7394)" class="st0" cx="13.7" cy="13.8" rx="2" ry="2"/>
<ellipse transform="matrix(0.7071 -0.7071 0.7071 0.7071 -12.7187 30.6362)" class="st0" cx="30.6" cy="30.7" rx="2" ry="2"/>
<circle class="st0" cx="10.2" cy="22.2" r="2"/>
<circle class="st0" cx="34.1" cy="22.2" r="2"/>
<ellipse transform="matrix(0.7071 -0.7071 0.7071 0.7071 -17.6688 18.6861)" class="st0" cx="13.7" cy="30.7" rx="2" ry="2"/>
<ellipse transform="matrix(0.7072 -0.707 0.707 0.7072 -0.7712 25.68)" class="st0" cx="30.6" cy="13.8" rx="2" ry="2"/>
</svg>
