<?xml version="1.0" encoding="utf-8"?>
<!-- Generator: Adobe Illustrator 20.1.0, SVG Export Plug-In . SVG Version: 6.00 Build 0)  -->
<svg version="1.1" id="Layer_1" xmlns="http://www.w3.org/2000/svg" xmlns:xlink="http://www.w3.org/1999/xlink" x="0px" y="0px"
	 viewBox="0 0 200 200" style="enable-background:new 0 0 200 200;" xml:space="preserve">
<style type="text/css">
	.st0{fill:#FFFFFF;}
</style>
<path class="st0" d="M123.2,126.5l71.3,58.5c1-1.4,1.5-3.2,1.5-5V81.1c0-1.3-0.3-2.5-0.8-3.7l-91.6,56.2c-1.1,0.7-2.4,1-3.7,1
	c-1.4,0-2.7-0.3-3.8-1L4.9,76.9c-0.7,1.2-1,2.7-1,4.2V180c0,1.8,0.6,3.6,1.5,5l71.4-58.6l4.9,3l-71.9,59c1,0.3,2,0.5,3.1,0.5h174.2
	c1.1,0,2.1-0.2,3.1-0.5l-71.9-58.9L123.2,126.5z M55,101.6h90.5L100.9,129c-0.4,0.2-1.4,0.2-1.8,0L55,101.6z M24.5,82.6h151.9
	l-13.9,8.5H38.2L24.5,82.6z M39.7,92.1h121.2l-13.9,8.5H53.5L39.7,92.1z M189.8,22.3c0-2.7-2.2-4.8-4.8-4.8H16.4
	c-2.7,0-4.8,2.2-4.8,4.8v52.3l11.4,7.1h155l11.9-7.3V22.3z M180.9,73.1H18.7c-0.3,0-0.5-0.2-0.5-0.5c0-0.3,0.2-0.5,0.5-0.5h162.2
	c0.3,0,0.5,0.2,0.5,0.5C181.4,72.9,181.2,73.1,180.9,73.1z M180.9,63.6H18.7c-0.3,0-0.5-0.2-0.5-0.5c0-0.3,0.2-0.5,0.5-0.5h162.2
	c0.3,0,0.5,0.2,0.5,0.5C181.4,63.4,181.2,63.6,180.9,63.6z M180.9,54.2H18.7c-0.3,0-0.5-0.2-0.5-0.5c0-0.3,0.2-0.5,0.5-0.5h162.2
	c0.3,0,0.5,0.2,0.5,0.5C181.4,53.9,181.2,54.2,180.9,54.2z M180.9,44.7H18.7c-0.3,0-0.5-0.2-0.5-0.5c0-0.3,0.2-0.5,0.5-0.5h162.2
	c0.3,0,0.5,0.2,0.5,0.5C181.4,44.4,181.2,44.7,180.9,44.7z M180.9,35.2H18.7c-0.3,0-0.5-0.2-0.5-0.5c0-0.3,0.2-0.5,0.5-0.5h162.2
	c0.3,0,0.5,0.2,0.5,0.5C181.4,35,181.2,35.2,180.9,35.2z M180.9,25.7H18.7c-0.3,0-0.5-0.2-0.5-0.5c0-0.3,0.2-0.5,0.5-0.5h162.2
	c0.3,0,0.5,0.2,0.5,0.5C181.4,25.5,181.2,25.7,180.9,25.7z"/>
</svg>
