<?xml version="1.0" encoding="utf-8"?>
<!-- Generator: Adobe Illustrator 23.0.2, SVG Export Plug-In . SVG Version: 6.00 Build 0)  -->
<svg version="1.1" id="e9309752-a4aa-4d10-8b50-4b89edcca3a2"
	 xmlns="http://www.w3.org/2000/svg" xmlns:xlink="http://www.w3.org/1999/xlink" x="0px" y="0px" viewBox="0 0 128 128"
	 style="enable-background:new 0 0 128 128;" xml:space="preserve">
<style type="text/css">
	.st0{fill:#FFFFFF;}
</style>
<g>
	<path class="st0" d="M64,8.5c19.1,0,37.4,13.1,43.4,30.7l-10.6-4.7c-11-18.1-34.6-23.8-52.7-12.8c-5.2,3.1-9.5,7.5-12.7,12.6
		l-10.7,4.6C26.8,21.5,45.1,8.5,64,8.5"/>
	<polygon class="st0" points="63.9,37.1 20.7,56.1 20.7,48.2 63.9,29.2 107.3,48.2 107.3,56.1 	"/>
	<rect x="20.7" y="106" class="st0" width="86.6" height="7.1"/>
	<rect x="72.5" y="63.8" class="st0" width="8.7" height="32.9"/>
	<rect x="46.6" y="63.8" class="st0" width="8.7" height="32.9"/>
	<rect x="20.7" y="63.8" class="st0" width="8.7" height="32.9"/>
	<rect x="98.5" y="63.8" class="st0" width="8.7" height="32.9"/>
</g>
</svg>
