<?xml version="1.0" encoding="utf-8"?>
<!-- Generator: Adobe Illustrator 20.1.0, SVG Export Plug-In . SVG Version: 6.00 Build 0)  -->
<svg version="1.1" id="Layer_1" xmlns="http://www.w3.org/2000/svg" xmlns:xlink="http://www.w3.org/1999/xlink" x="0px" y="0px"
	 viewBox="0 0 200 200" style="enable-background:new 0 0 200 200;" xml:space="preserve">
<style type="text/css">
	.st0{fill:#FFFFFF;}
</style>
<g>
	<path class="st0" d="M78.7,86.1l0.1-3.2C76,83,76.1,83,73.4,83.2l0.6,3.2C76.3,86.3,76.3,86.2,78.7,86.1z"/>
	<path class="st0" d="M114.5,87.1l2.3-3.3c-2.7-0.3-10.4-0.8-13.3-0.9l0.2,3.2C106.1,86.2,112.2,86.8,114.5,87.1z"/>
	<path class="st0" d="M165.1,17.3c-5.3-2.8-11.8-0.7-14.6,4.5l-4.3,8.2c-0.3,0.3-1.1,0.8-1.9,0.4c-0.9-0.5-1.7-1.2-1.6-1.7l2.8-4.8
		c0.7-1.3,0.3-2.9-0.9-3.6c-1.3-0.7-2.9-0.3-3.6,0.9c0,0.1-0.1,0.1-0.1,0.2l-16.1,34.1l0,0.1l0,0c-1.1,3.5-2.1,7-3.1,10.5
		c-1,3.5-2,7-3,10.5c1.3-3.4,2.6-6.8,3.9-10.2c1.3-3.3,2.6-6.7,4-10l14.4-24.6c0.2-0.5,1.4,0.1,2.4,0.6c0.8,0.4,0.8,1.3,0.8,1.8
		l-11.6,22.1l19.1,10.1l18.2-34.5C172.4,26.6,170.4,20,165.1,17.3z"/>
	<path class="st0" d="M103.7,110.9c13-0.9,23.5-3.7,28.2-7.3l16.4-31.3l-19.1-10.1L103.7,110.9z"/>
	
		<rect x="139" y="53.4" transform="matrix(0.4662 -0.8847 0.8847 0.4662 18.1056 158.4712)" class="st0" width="2.8" height="21.6"/>
	<path class="st0" d="M58.5,51.3l11.8,59.5c1,0.2,2.1,0.3,3.1,0.4l-12-60.5L58.5,51.3z"/>
	<path class="st0" d="M74.4,111.3c1.2,0.1,2.4,0.3,3.6,0.4L66.1,51.7l-3.7-1L74.4,111.3z"/>
	<polygon class="st0" points="57.2,36.9 56.5,41 59.4,40.5 	"/>
	<polygon class="st0" points="61.7,49.6 65.7,50.7 59.9,41.4 56.4,42.1 54.6,52.9 57.9,50.4 	"/>
	<polygon class="st0" points="81.3,110.7 84.9,110.7 84.9,110 81.3,110 81.3,109.3 84.9,109.3 84.9,108.6 81.3,108.6 81.3,107.7 
		87.5,107.7 87.5,107.1 81.3,107.1 81.3,106.3 84.9,106.3 84.9,105.7 81.3,105.7 81.3,104.9 84.9,104.9 84.9,104.2 81.3,104.2 
		81.3,103.5 84.9,103.5 84.9,102.8 81.3,102.8 81.3,102.1 84.9,102.1 84.9,101.4 81.3,101.4 81.3,100.7 84.9,100.7 84.9,100 
		81.3,100 81.3,99.2 87.5,99.2 87.5,98.5 81.3,98.5 81.3,97.8 84.9,97.8 84.9,97.1 81.3,97.1 81.3,96.4 84.9,96.4 84.9,95.7 
		81.3,95.7 81.3,94.9 84.9,94.9 84.9,94.3 81.3,94.3 81.3,93.5 84.9,93.5 84.9,92.9 81.3,92.9 81.3,92.1 84.9,92.1 84.9,91.4 
		81.3,91.4 81.3,90.6 87.5,90.6 87.5,89.9 81.3,89.9 81.3,89.2 84.9,89.2 84.9,88.5 81.3,88.5 81.3,87.8 84.9,87.8 84.9,87.1 
		81.3,87.1 81.3,86.4 84.9,86.4 84.9,85.7 81.3,85.7 81.3,85 84.9,85 84.9,84.3 81.3,84.3 81.3,83.6 84.9,83.6 84.9,82.9 81.3,82.9 
		81.3,82 87.5,82 87.5,81.4 81.3,81.4 81.3,80.6 84.9,80.6 84.9,79.9 81.3,79.9 81.3,79.2 84.9,79.2 84.9,78.5 81.3,78.5 81.3,77.8 
		84.9,77.8 84.9,77.1 81.3,77.1 81.3,76.4 84.9,76.4 84.9,75.7 81.3,75.7 81.3,75 84.9,75 84.9,74.3 81.3,74.3 81.3,73.5 87.5,73.5 
		87.5,72.8 81.3,72.8 81.3,72.1 84.9,72.1 84.9,71.4 81.3,71.4 81.3,70.6 84.9,70.6 84.9,70 81.3,70 81.3,69.2 84.9,69.2 84.9,68.6 
		81.3,68.6 81.3,67.8 84.9,67.8 84.9,67.1 81.3,67.1 81.3,66.4 84.9,66.4 84.9,65.7 81.3,65.7 81.3,64.9 87.5,64.9 87.5,64.2 
		81.3,64.2 81.3,63.5 84.9,63.5 84.9,62.8 81.3,62.8 81.3,62.1 84.9,62.1 84.9,61.4 81.3,61.4 81.3,60.7 84.9,60.7 84.9,60 81.3,60 
		81.3,59.3 84.9,59.3 84.9,58.6 81.3,58.6 81.3,57.8 84.9,57.8 84.9,57.2 81.3,57.2 81.3,56.3 87.5,56.3 87.5,55.6 81.3,55.6 
		81.3,54.9 84.9,54.9 84.9,54.2 81.3,54.2 81.3,53.5 84.9,53.5 84.9,52.8 81.3,52.8 81.3,52.1 84.9,52.1 84.9,51.4 81.3,51.4 
		81.3,50.7 84.9,50.7 84.9,50 81.3,50 81.3,49.3 84.9,49.3 84.9,48.6 81.3,48.6 81.3,47.7 87.5,47.7 87.5,47.1 81.3,47.1 81.3,46.3 
		84.9,46.3 84.9,45.7 81.3,45.7 81.3,44.9 84.9,44.9 84.9,44.3 81.3,44.3 81.3,43.5 84.9,43.5 84.9,42.8 81.3,42.8 81.3,42.1 
		84.9,42.1 84.9,41.4 81.3,41.4 81.3,40.7 84.9,40.7 84.9,40 81.3,40 81.3,39.2 87.5,39.2 87.5,38.5 81.3,38.5 81.3,37.8 84.9,37.8 
		84.9,37.1 81.3,37.1 81.3,36.4 84.9,36.4 84.9,35.7 81.3,35.7 81.3,34.9 84.9,34.9 84.9,34.3 81.3,34.3 81.3,33.5 84.9,33.5 
		84.9,32.9 81.3,32.9 81.3,32.1 84.9,32.1 84.9,31.5 81.3,31.5 81.3,30.6 87.5,30.6 87.5,29.9 81.3,29.9 81.3,29.2 84.9,29.2 
		84.9,28.5 81.3,28.5 81.3,27.8 84.9,27.8 84.9,27.1 81.3,27.1 81.3,26.4 84.9,26.4 84.9,25.7 81.3,25.7 81.3,25 84.9,25 84.9,24.3 
		81.3,24.3 81.3,23.6 84.9,23.6 84.9,22.9 81.3,22.9 81.3,22 87.5,22 87.5,21.4 81.3,21.4 81.3,20.6 84.9,20.6 84.9,20 81.3,20 
		81.3,19.2 84.9,19.2 84.9,18.5 81.3,18.5 81.3,17.8 84.9,17.8 84.9,17.1 81.3,17.1 81.3,16.4 84.9,16.4 84.9,15.7 81.3,15.7 
		81.3,15 84.9,15 84.9,14.3 81.3,14.3 81.3,13.5 87.5,13.5 87.5,12.8 81.3,12.8 81.3,12.1 84.9,12.1 84.9,11.4 81.3,11.4 81.3,10.6 
		84.9,10.6 84.9,10 81.3,10 81.3,9.2 84.9,9.2 84.9,8.6 81.3,8.6 81.3,7.8 84.9,7.8 84.9,7.2 81.3,7.2 81.3,6.4 84.9,6.4 84.9,5.7 
		81.3,5.7 81.3,5 87.5,5 87.5,4.3 81.3,4.3 81.3,2.7 101.5,2.7 101.5,112.1 102.6,112.1 102.6,1.4 79.9,1.4 79.9,112.1 81.3,112.1 	
		"/>
	<path class="st0" d="M140.4,90.5l-2.6,5c1.3,1.3,2,2.7,2,4.1c0,7.8-21.3,14.1-47.5,14.1c-26.3,0-47.5-6.3-47.5-14.1
		c0-4.3,6.5-8.2,16.8-10.7l4.2,21.1c1.2,0.2,2.4,0.5,3.6,0.7L57.7,51.7l-3,2.3l6.2,31.2c-14.8,3-24.4,8-24.4,13.7
		c0,0.3,0,0.6,0.1,0.9h0l0,0c0,0.2,0.1,0.4,0.2,0.7l22.7,88.2h0c1.4,5.5,15.7,9.9,33.1,9.9c17.4,0,31.7-4.4,33.1-9.9h0l22.4-88.3
		c0.1-0.2,0.1-0.4,0.2-0.6l0,0h0c0.1-0.3,0.1-0.6,0.1-0.9C148.1,95.8,145.3,92.9,140.4,90.5z M48.2,125
		c13.1,55.9,36.6,70.4,36.6,70.4C56,194.6,48.2,125,48.2,125z"/>
</g>
</svg>
