<?xml version="1.0" encoding="utf-8"?>
<!-- Generator: Adobe Illustrator 20.1.0, SVG Export Plug-In . SVG Version: 6.00 Build 0)  -->
<svg version="1.1" id="Layer_1" xmlns="http://www.w3.org/2000/svg" xmlns:xlink="http://www.w3.org/1999/xlink" x="0px" y="0px"
	 viewBox="0 0 200 200" style="enable-background:new 0 0 200 200;" xml:space="preserve">
<style type="text/css">
	.st0{fill:#FFFFFF;}
</style>
<g>
	<polygon class="st0" points="69.8,122.8 55.3,126.3 54.1,111.5 42.4,110.5 16,151 44.8,148.9 54.5,176.2 83.6,131.6 75.5,136.6 	
		"/>
	<polygon class="st0" points="148.9,110.9 141.6,111.5 140.4,126.3 125.9,122.8 120.2,136.6 107.5,128.8 106.7,129.7 144,195.1 
		155.3,168.5 184,172.3 	"/>
	<path class="st0" d="M122.2,115.4l12.5,3l1-12.9l12.9-1l-3-12.5l11.9-5l-6.8-11l9.9-8.4l-9.9-8.4l6.8-11l-11.9-5l3-12.5l-12.9-1
		l-1-12.9l-12.5,3l-5-11.9l-11,6.8l-8.4-9.9l-8.4,9.9L78.5,8l-5,11.9l-12.5-3l-1,12.9l-12.9,1l3,12.5l-11.9,5l6.7,11l-9.8,8.4
		l9.8,8.4l-6.7,11l11.9,5l-3,12.5l12.9,1l1,12.9l12.5-3l5,11.9l11-6.7l8.4,9.8l8.4-9.8l11,6.7L122.2,115.4z M102.2,97.4v7.7h-7.9
		v-7.7c-5.4-0.6-9.6-2.1-12.4-4.6c-2.8-2.5-4.2-6.5-4.2-11.9v-2.3h15.5v1.6c0,2.6,0.5,4.4,1.5,5.3c1,1,2.3,1.5,3.9,1.5
		c1.7,0,2.9-0.5,3.8-1.6c0.9-1.1,1.3-2.4,1.3-4c0-1.9-0.6-3.5-1.8-4.6c-1.2-1.1-2.8-2.1-4.6-3c-1.9-0.8-3.9-1.7-6.1-2.5
		c-2.2-0.8-4.2-1.9-6.1-3.3c-1.9-1.3-3.4-3.1-4.6-5.3c-1.2-2.2-1.8-5-1.8-8.5c0-10.7,5.2-16.9,15.7-18.7v-5h7.9v5
		c5.7,0.6,9.9,2.3,12.5,5.2c2.6,2.9,3.9,7.3,3.9,13.2h-15v-1.3c0-1.7-0.4-3.2-1.1-4.5c-0.7-1.3-1.9-1.9-3.4-1.9
		c-1.7,0-3,0.6-3.8,1.7C94.4,49,94,50.2,94,51.6c0,2,0.6,3.6,1.9,4.7c1.3,1.1,2.9,2.1,4.9,3c1.9,0.8,4,1.6,6.3,2.4
		c2.2,0.8,4.3,1.8,6.3,3.2c1.9,1.4,3.6,3.2,4.9,5.4c1.3,2.2,1.9,5.2,1.9,8.9c0,5.8-1.5,10.2-4.6,13C112.5,95,108.1,96.7,102.2,97.4z
		"/>
</g>
</svg>
